<svg width="34" height="34" viewBox="0 0 34 34" fill="none" xmlns="http://www.w3.org/2000/svg">
<mask id="mask0_281_9078" style="mask-type:alpha" maskUnits="userSpaceOnUse" x="0" y="0" width="34" height="34">
<rect width="34" height="34" fill="#D9D9D9"/>
</mask>
<g mask="url(#mask0_281_9078)">
<path d="M12.8205 19.6563H25.0393L21.2143 14.592L17.6375 19.0893L15.3357 16.3625L12.8205 19.6563ZM10.8375 24.5081C10.2708 24.5081 9.78686 24.3075 9.38566 23.9063C8.98389 23.5051 8.78301 23.0211 8.78301 22.4545V6.30445C8.78301 5.73778 8.98389 5.25357 9.38566 4.8518C9.78686 4.4506 10.2708 4.25 10.8375 4.25H26.9875C27.5541 4.25 28.0381 4.4506 28.4393 4.8518C28.841 5.25357 29.0419 5.73778 29.0419 6.30445V22.4545C29.0419 23.0211 28.841 23.5051 28.4393 23.9063C28.0381 24.3075 27.5541 24.5081 26.9875 24.5081H10.8375ZM10.8375 23.3045H26.9875C27.2 23.3045 27.3949 23.2158 27.5723 23.0384C27.7491 22.8616 27.8375 22.667 27.8375 22.4545V6.30445C27.8375 6.09195 27.7491 5.89702 27.5723 5.71965C27.3949 5.54285 27.2 5.45445 26.9875 5.45445H10.8375C10.625 5.45445 10.43 5.54285 10.2527 5.71965C10.0759 5.89702 9.98746 6.09195 9.98746 6.30445V22.4545C9.98746 22.667 10.0759 22.8616 10.2527 23.0384C10.43 23.2158 10.625 23.3045 10.8375 23.3045ZM7.01246 28.3331C6.44579 28.3331 5.96186 28.1325 5.56066 27.7313C5.15889 27.3301 4.95801 26.8461 4.95801 26.2795V8.925H6.16246V26.2795C6.16246 26.492 6.25086 26.6866 6.42766 26.8634C6.60502 27.0408 6.79996 27.1295 7.01246 27.1295H24.3669V28.3331H7.01246Z" fill="#1C1B1F"/>
</g>
</svg>
